<mxfile host="app.diagrams.net" modified="2023-05-18T14:35:11.292Z" agent="Mozilla/5.0 (Windows NT 10.0; Win64; x64) AppleWebKit/537.36 (KHTML, like Gecko) Chrome/113.0.0.0 Safari/537.36" version="21.3.2" etag="5PHTxxQHlFfC4O3z_Msd" type="github">
  <diagram name="Page-1" id="y1awzg2c7FMNum2GLoTt">
    <mxGraphModel>
      <root>
        <mxCell id="0" />
        <mxCell id="1" parent="0" />
      </root>
    </mxGraphModel>
  </diagram>
</mxfile>
